<svg width="39" height="40" viewBox="0 0 39 40" fill="none" xmlns="http://www.w3.org/2000/svg">
<mask id="mask0_309_966" style="mask-type:alpha" maskUnits="userSpaceOnUse" x="0" y="0" width="39" height="40">
<rect x="0.661499" width="38.1538" height="40" rx="5" fill="#2405F2"/>
</mask>
<g mask="url(#mask0_309_966)">
<rect x="0.661499" width="38.1538" height="40" rx="5" fill="#FCD980"/>
<rect x="-28.9078" y="14" width="38.1538" height="40" rx="5" fill="#282938"/>
</g>
<path d="M24.0346 30.22C23.0613 30.22 22.1679 30.0533 21.3546 29.72C20.5413 29.3733 19.8546 28.88 19.2946 28.24L21.3146 26.22C21.5679 26.5933 21.9346 26.9 22.4146 27.14C22.9079 27.3667 23.4279 27.48 23.9746 27.48C24.4679 27.48 24.8946 27.3933 25.2546 27.22C25.6146 27.0467 25.8946 26.8 26.0946 26.48C26.3079 26.16 26.4146 25.78 26.4146 25.34C26.4146 24.9 26.3079 24.5267 26.0946 24.22C25.8946 23.9 25.5946 23.6533 25.1946 23.48C24.8079 23.3067 24.3413 23.22 23.7946 23.22C23.5413 23.22 23.2746 23.24 22.9946 23.28C22.7279 23.3067 22.5013 23.3533 22.3146 23.42L23.6946 21.68C24.0679 21.5733 24.4213 21.4867 24.7546 21.42C25.1013 21.34 25.4213 21.3 25.7146 21.3C26.4346 21.3 27.0813 21.4733 27.6546 21.82C28.2279 22.1533 28.6813 22.6333 29.0146 23.26C29.3613 23.8733 29.5346 24.6067 29.5346 25.46C29.5346 26.3933 29.3013 27.22 28.8346 27.94C28.3813 28.66 27.7413 29.22 26.9146 29.62C26.1013 30.02 25.1413 30.22 24.0346 30.22ZM22.3146 23.42V21.68L25.7546 17.64L29.2746 17.62L25.6946 21.7L22.3146 23.42ZM20.1746 18.54V15.88H29.2746V17.62L26.8146 18.54H20.1746Z" fill="#282938"/>
</svg>
