<svg width="39" height="40" viewBox="0 0 39 40" fill="none" xmlns="http://www.w3.org/2000/svg">
<mask id="mask0_309_960" style="mask-type:alpha" maskUnits="userSpaceOnUse" x="0" y="0" width="39" height="40">
<rect x="0.723145" width="38.1538" height="40" rx="5" fill="#2405F2"/>
</mask>
<g mask="url(#mask0_309_960)">
<rect x="0.723145" width="38.1538" height="40" rx="5" fill="#FCD980"/>
<rect x="-28.8462" y="14" width="38.1538" height="40" rx="5" fill="#282938"/>
</g>
<path d="M19.5161 28.24L24.9361 22.64C25.2695 22.3067 25.5361 22 25.7361 21.72C25.9361 21.44 26.0828 21.18 26.1761 20.94C26.2695 20.6867 26.3161 20.4333 26.3161 20.18C26.3161 19.6333 26.1361 19.2067 25.7761 18.9C25.4295 18.58 24.9695 18.42 24.3961 18.42C23.8361 18.42 23.3295 18.5733 22.8761 18.88C22.4361 19.1733 22.0095 19.66 21.5961 20.34L19.4961 18.52C20.0561 17.5733 20.7695 16.86 21.6361 16.38C22.5028 15.9 23.4961 15.66 24.6161 15.66C25.5895 15.66 26.4295 15.84 27.1361 16.2C27.8561 16.56 28.4095 17.0733 28.7961 17.74C29.1961 18.4067 29.3961 19.1867 29.3961 20.08C29.3961 20.64 29.3228 21.16 29.1761 21.64C29.0295 22.1067 28.7895 22.5733 28.4561 23.04C28.1361 23.4933 27.7028 23.9933 27.1561 24.54L23.3961 28.28L19.5161 28.24ZM19.5161 30V28.24L22.1761 27.32H29.6761V30H19.5161Z" fill="#282938"/>
</svg>
